<svg width="22" height="23" viewBox="0 0 22 23" fill="none" xmlns="http://www.w3.org/2000/svg">
<path fill-rule="evenodd" clip-rule="evenodd" d="M6.41131 0.540619C7.57581 0.487011 7.9471 0.475098 10.9134 0.475098C13.8798 0.475098 14.2511 0.488003 15.4146 0.540619C16.5781 0.593235 17.3723 0.77888 18.0672 1.04792C18.7949 1.32291 19.4551 1.75277 20.0011 2.30871C20.557 2.85373 20.9859 3.51292 21.2599 4.2416C21.5299 4.93653 21.7146 5.73073 21.7682 6.89225C21.8218 8.05873 21.8337 8.43002 21.8337 11.3954C21.8337 14.3617 21.8208 14.733 21.7682 15.8975C21.7156 17.059 21.5299 17.8532 21.2599 18.5482C20.9859 19.2769 20.5563 19.9372 20.0011 20.483C19.4551 21.039 18.7949 21.4678 18.0672 21.7418C17.3723 22.0119 16.5781 22.1965 15.4166 22.2501C14.2511 22.3037 13.8798 22.3157 10.9134 22.3157C7.9471 22.3157 7.57581 22.3027 6.41131 22.2501C5.24979 22.1975 4.45559 22.0119 3.76066 21.7418C3.0319 21.4678 2.37162 21.0382 1.82579 20.483C1.27022 19.9377 0.840294 19.2777 0.565982 18.5491C0.296946 17.8542 0.112294 17.06 0.0586857 15.8985C0.00507708 14.732 -0.00683594 14.3607 -0.00683594 11.3954C-0.00683594 8.42903 0.00606983 8.05774 0.0586857 6.89424C0.111302 5.73073 0.296946 4.93653 0.565982 4.2416C0.840699 3.513 1.27095 2.85305 1.82678 2.30772C2.37184 1.75227 3.03146 1.32236 3.75967 1.04792C4.45459 0.77888 5.2488 0.594228 6.41032 0.540619H6.41131ZM15.3262 2.50627C14.1746 2.45365 13.8292 2.44273 10.9134 2.44273C7.99773 2.44273 7.65225 2.45365 6.50066 2.50627C5.43543 2.55491 4.85765 2.73262 4.47246 2.88252C3.96318 3.08107 3.59884 3.31636 3.21663 3.69857C2.85432 4.05104 2.57549 4.48014 2.40059 4.9544C2.25068 5.33958 2.07298 5.91737 2.02434 6.98259C1.97172 8.13418 1.9608 8.47966 1.9608 11.3954C1.9608 14.3111 1.97172 14.6566 2.02434 15.8082C2.07298 16.8734 2.25068 17.4512 2.40059 17.8364C2.57531 18.3099 2.85428 18.7398 3.21663 19.0922C3.56906 19.4545 3.99892 19.7335 4.47246 19.9082C4.85765 20.0581 5.43543 20.2358 6.50066 20.2845C7.65225 20.3371 7.99673 20.348 10.9134 20.348C13.8301 20.348 14.1746 20.3371 15.3262 20.2845C16.3914 20.2358 16.9692 20.0581 17.3544 19.9082C17.8637 19.7097 18.228 19.4744 18.6103 19.0922C18.9726 18.7398 19.2516 18.3099 19.4263 17.8364C19.5762 17.4512 19.7539 16.8734 19.8025 15.8082C19.8552 14.6566 19.8661 14.3111 19.8661 11.3954C19.8661 8.47966 19.8552 8.13418 19.8025 6.98259C19.7539 5.91737 19.5762 5.33958 19.4263 4.9544C19.2277 4.44511 18.9925 4.08077 18.6103 3.69857C18.2578 3.33628 17.8287 3.05746 17.3544 2.88252C16.9692 2.73262 16.3914 2.55491 15.3262 2.50627ZM9.51862 14.7618C10.2976 15.0861 11.165 15.1298 11.9726 14.8856C12.7803 14.6414 13.4781 14.1244 13.9469 13.4228C14.4157 12.7213 14.6264 11.8787 14.543 11.0391C14.4596 10.1994 14.0873 9.41481 13.4896 8.81918C13.1087 8.43844 12.648 8.1469 12.1408 7.96556C11.6336 7.78422 11.0926 7.71758 10.5565 7.77045C10.0205 7.82332 9.50289 7.99438 9.04092 8.27131C8.57894 8.54824 8.18411 8.92416 7.88485 9.372C7.5856 9.81983 7.38936 10.3285 7.31026 10.8612C7.23117 11.394 7.27118 11.9377 7.42743 12.4532C7.58368 12.9686 7.85227 13.443 8.21387 13.8422C8.57547 14.2414 9.02108 14.5555 9.51862 14.7618ZM6.94442 7.42635C7.46564 6.90513 8.08441 6.49168 8.76542 6.20959C9.44643 5.92751 10.1763 5.78233 10.9134 5.78233C11.6506 5.78233 12.3805 5.92751 13.0615 6.20959C13.7425 6.49168 14.3612 6.90513 14.8825 7.42635C15.4037 7.94757 15.8171 8.56635 16.0992 9.24735C16.3813 9.92836 16.5265 10.6583 16.5265 11.3954C16.5265 12.1325 16.3813 12.8624 16.0992 13.5434C15.8171 14.2244 15.4037 14.8432 14.8825 15.3644C13.8298 16.417 12.4021 17.0084 10.9134 17.0084C9.42477 17.0084 7.99707 16.417 6.94442 15.3644C5.89177 14.3117 5.30039 12.884 5.30039 11.3954C5.30039 9.9067 5.89177 8.479 6.94442 7.42635ZM17.7714 6.61825C17.9005 6.49641 18.0039 6.34989 18.0755 6.18737C18.147 6.02485 18.1852 5.84963 18.1878 5.67209C18.1903 5.49454 18.1573 5.31829 18.0905 5.15375C18.0238 4.98921 17.9247 4.83974 17.7991 4.71419C17.6736 4.58863 17.5241 4.48955 17.3596 4.4228C17.195 4.35604 17.0188 4.32298 16.8412 4.32557C16.6637 4.32816 16.4885 4.36634 16.326 4.43786C16.1634 4.50938 16.0169 4.61279 15.8951 4.74195C15.6581 4.99314 15.5284 5.3268 15.5334 5.67209C15.5384 6.01737 15.6779 6.34711 15.922 6.59129C16.1662 6.83547 16.4959 6.97487 16.8412 6.97991C17.1865 6.98494 17.5202 6.85521 17.7714 6.61825Z" fill="black" fill-opacity="0.59"/>
</svg>
