<svg width="34" height="28" viewBox="0 0 34 28" fill="none" xmlns="http://www.w3.org/2000/svg">
<path d="M2 5.66634C2 4.78229 2.35119 3.93444 2.97631 3.30932C3.60143 2.6842 4.44928 2.33301 5.33333 2.33301H28.6667C29.5507 2.33301 30.3986 2.6842 31.0237 3.30932C31.6488 3.93444 32 4.78229 32 5.66634V22.333C32 23.2171 31.6488 24.0649 31.0237 24.69C30.3986 25.3152 29.5507 25.6663 28.6667 25.6663H5.33333C4.44928 25.6663 3.60143 25.3152 2.97631 24.69C2.35119 24.0649 2 23.2171 2 22.333V5.66634Z" fill="#1E2B3B" stroke="#1E2B3B" stroke-width="3.39394" stroke-linecap="round" stroke-linejoin="round"/>
<path d="M2 5.66626L17 15.6663L32 5.66626" fill="white"/>
<path d="M2 5.66626L17 15.6663L32 5.66626" stroke="#1E2B3B" stroke-width="3.39394" stroke-linecap="round" stroke-linejoin="round"/>
</svg>
