<svg width="22" height="22" viewBox="0 0 22 22" fill="none" xmlns="http://www.w3.org/2000/svg">
<path fill-rule="evenodd" clip-rule="evenodd" d="M0.741211 2.18724C0.741211 1.72266 0.925764 1.27711 1.25427 0.948608C1.58278 0.620102 2.02833 0.435549 2.4929 0.435549H19.9545C20.1848 0.435173 20.4128 0.480212 20.6256 0.568086C20.8384 0.65596 21.0318 0.784944 21.1947 0.947653C21.3576 1.11036 21.4868 1.3036 21.5749 1.51631C21.663 1.72901 21.7083 1.95701 21.7081 2.18724V19.6489C21.7084 19.8792 21.6632 20.1072 21.5753 20.32C21.4873 20.5328 21.3582 20.7262 21.1954 20.8891C21.0326 21.052 20.8393 21.1811 20.6266 21.2692C20.4138 21.3573 20.1858 21.4026 19.9555 21.4025H2.4929C2.26279 21.4025 2.03493 21.3571 1.82234 21.269C1.60975 21.181 1.4166 21.0518 1.25393 20.8891C1.09126 20.7263 0.962252 20.5331 0.874277 20.3205C0.786302 20.1078 0.741086 19.8799 0.741211 19.6498V2.18724ZM9.0403 8.42967H11.8794V9.85542C12.2892 9.0358 13.3376 8.29815 14.9129 8.29815C17.9331 8.29815 18.6489 9.93071 18.6489 12.9261V18.4747H15.5925V13.6085C15.5925 11.9026 15.1827 10.94 14.1419 10.94C12.6981 10.94 12.0977 11.9778 12.0977 13.6085V18.4747H9.0403V8.42967ZM3.79857 18.3442H6.85593V8.29815H3.79857V18.3432V18.3442ZM7.29338 5.02159C7.29914 5.28336 7.25256 5.54365 7.15637 5.78718C7.06017 6.03071 6.91631 6.25257 6.73321 6.43975C6.55011 6.62692 6.33147 6.77564 6.09012 6.87717C5.84877 6.9787 5.58957 7.031 5.32773 7.031C5.06589 7.031 4.80669 6.9787 4.56534 6.87717C4.32398 6.77564 4.10534 6.62692 3.92225 6.43975C3.73915 6.25257 3.59528 6.03071 3.49909 5.78718C3.40289 5.54365 3.35631 5.28336 3.36208 5.02159C3.37339 4.50776 3.58546 4.01879 3.95285 3.65939C4.32025 3.29999 4.81377 3.09875 5.32773 3.09875C5.84168 3.09875 6.3352 3.29999 6.7026 3.65939C7.07 4.01879 7.28206 4.50776 7.29338 5.02159Z" fill="black" fill-opacity="0.59"/>
</svg>
