<svg width="30" height="39" viewBox="0 0 30 39" fill="none" xmlns="http://www.w3.org/2000/svg">
<path d="M0.800015 15.0012L0.800015 15.0009C0.804457 11.236 2.30205 7.62649 4.96428 4.96426C7.62628 2.30226 11.2354 0.804691 15 0.800001C18.7646 0.804691 22.3737 2.30226 25.0357 4.96426C27.698 7.62649 29.1955 11.236 29.2 15.0009V15.0011C29.2044 18.0744 28.2005 21.0643 26.3423 23.5122L26.2623 23.6176L26.2614 23.6202L26.131 23.7903C26.0762 23.8617 26.0201 23.9345 25.9742 23.9937L25.9159 24.0685C25.9026 24.0855 25.8956 24.0943 25.8932 24.0973C25.8924 24.0983 25.8921 24.0986 25.8922 24.0985L15 36.9448L4.10792 24.099L4.10793 24.0989L4.10532 24.0959C4.10534 24.0959 4.09947 24.0888 4.08491 24.0704C4.06961 24.0511 4.04992 24.026 4.02681 23.9963C3.98074 23.937 3.92463 23.8641 3.86975 23.7924C3.81503 23.721 3.76228 23.6519 3.72316 23.6005L3.67631 23.539L3.66338 23.522L3.66002 23.5176L3.65918 23.5165L3.65902 23.5163C1.79987 21.0672 0.795509 18.0759 0.800015 15.0012ZM21.2545 15.001V15C21.2545 13.763 20.8877 12.5537 20.2005 11.5251C19.5132 10.4966 18.5364 9.69493 17.3935 9.22154C16.2506 8.74815 14.9931 8.62429 13.7798 8.86562C12.5665 9.10696 11.4521 9.70264 10.5774 10.5774C9.70266 11.4521 9.10697 12.5665 8.86564 13.7798C8.62431 14.993 8.74817 16.2506 9.22156 17.3935C9.69495 18.5364 10.4966 19.5132 11.5252 20.2004C12.5537 20.8877 13.763 21.2545 15 21.2545L15.001 21.2545C16.6589 21.2525 18.2483 20.5929 19.4206 19.4206C20.593 18.2483 21.2525 16.6589 21.2545 15.001Z" fill="#1E2B3B" stroke="#1E2B3B" stroke-width="1.6"/>
</svg>
