<svg width="30" height="31" viewBox="0 0 30 31" fill="none" xmlns="http://www.w3.org/2000/svg">
<path d="M21.6015 29.8205H21.6004C10.0405 29.8205 0.634312 20.4143 0.634313 8.85443L0.634311 8.85329C0.630912 6.95728 1.31781 5.12487 2.5667 3.69829C3.81491 2.27249 5.53918 1.34954 7.41779 1.10157C7.79504 1.05611 8.17691 1.13356 8.50667 1.32245C8.83724 1.5118 9.0977 1.80298 9.24918 2.15253L9.24914 2.15254L9.25231 2.15961L12.3649 9.10851V9.12248L12.4173 9.24318C12.5332 9.51075 12.5811 9.80288 12.5567 10.0935C12.5323 10.3828 12.437 10.6616 12.2792 10.9052C12.2674 10.9228 12.2529 10.9423 12.2327 10.9677L9.11535 14.663L8.84795 14.98L9.03106 15.3521C10.2176 17.7633 12.7091 20.2315 15.147 21.4189L15.5199 21.6005L15.8358 21.3317L19.484 18.2276C19.4844 18.2273 19.4849 18.2269 19.4853 18.2265C19.5021 18.2125 19.5197 18.1994 19.5379 18.1874L19.5403 18.1858C19.7845 18.0229 20.0655 17.9235 20.3578 17.8965C20.6473 17.8698 20.939 17.915 21.2068 18.028L21.2175 18.033L21.2175 18.033L21.224 18.0359L28.2906 21.2025L28.2906 21.2025L28.2989 21.2061C28.6491 21.3571 28.941 21.6173 29.1309 21.9479C29.3204 22.2776 29.3983 22.6596 29.3532 23.0371C29.1052 24.9157 28.1823 26.6399 26.7565 27.8881C25.3299 29.137 23.4975 29.8239 21.6015 29.8205Z" fill="#1E2B3B" stroke="#1E2B3B" stroke-width="1.2686"/>
</svg>
