<svg width="24" height="19" viewBox="0 0 24 19" fill="none" xmlns="http://www.w3.org/2000/svg">
<path d="M23.2983 2.38361C22.4693 2.75093 21.5788 2.99912 20.6427 3.1113C21.6086 2.53331 22.3313 1.62363 22.6758 0.551982C21.7683 1.09104 20.775 1.47047 19.7393 1.67379C19.0427 0.930087 18.1201 0.437147 17.1147 0.271504C16.1093 0.105861 15.0774 0.276783 14.1791 0.757733C13.2808 1.23868 12.5664 2.00275 12.1468 2.93132C11.7273 3.85988 11.626 4.90098 11.8588 5.89299C10.0199 5.80066 8.22097 5.3227 6.57876 4.49014C4.93654 3.65757 3.48774 2.489 2.32638 1.06027C1.92928 1.74527 1.70094 2.53947 1.70094 3.3853C1.7005 4.14673 1.88801 4.89651 2.24684 5.56809C2.60566 6.23968 3.12471 6.81232 3.75793 7.23519C3.02356 7.21182 2.3054 7.01339 1.66322 6.65642V6.71598C1.66314 7.78393 2.03256 8.81901 2.70877 9.64559C3.38498 10.4722 4.32635 11.0393 5.37313 11.2509C4.69189 11.4352 3.97766 11.4624 3.28438 11.3303C3.57972 12.2492 4.15502 13.0527 4.92974 13.6284C5.70445 14.2041 6.6398 14.5232 7.60484 14.5409C5.96663 15.8269 3.94346 16.5245 1.86078 16.5214C1.49185 16.5215 1.12324 16.5 0.756836 16.4569C2.87088 17.8161 5.33178 18.5375 7.84509 18.5347C16.353 18.5347 21.004 11.4881 21.004 5.37676C21.004 5.17821 20.9991 4.97767 20.9901 4.77912C21.8948 4.12487 22.6757 3.31471 23.2963 2.38659L23.2983 2.38361Z" fill="black" fill-opacity="0.59"/>
</svg>
