<svg width="31" height="23" viewBox="0 0 31 23" fill="none" xmlns="http://www.w3.org/2000/svg">
<path d="M30.1528 4.26773C29.9801 3.61322 29.6438 3.02066 29.1794 2.55304C28.702 2.07105 28.1169 1.72626 27.4792 1.55124C25.0928 0.882916 15.5319 0.882916 15.5319 0.882916C11.546 0.834733 7.56118 1.04665 3.59979 1.51748C2.96213 1.70544 2.37807 2.05793 1.89956 2.54359C1.42939 3.02424 1.08884 3.61696 0.910936 4.26638C0.483583 6.71249 0.275946 9.19621 0.290823 11.6841C0.275575 14.1697 0.482703 16.6526 0.910936 19.1018C1.08503 19.7485 1.42431 20.3385 1.89575 20.8151C2.36718 21.2917 2.95426 21.636 3.59979 21.8182C6.01797 22.4852 15.5319 22.4852 15.5319 22.4852C19.5228 22.5335 23.5127 22.3215 27.4792 21.8506C28.1169 21.6756 28.702 21.3308 29.1794 20.8488C29.6436 20.3813 29.9796 19.7887 30.1515 19.1342C30.5901 16.689 30.8033 14.2042 30.7882 11.7151C30.8212 9.21547 30.6082 6.719 30.1528 4.26638V4.26773ZM12.4923 16.307V7.06252L20.447 11.6854L12.4923 16.307Z" fill="black" fill-opacity="0.59"/>
</svg>
